<svg width="544" height="77" viewBox="0 0 544 77" fill="none" xmlns="http://www.w3.org/2000/svg">
<path d="M501.817 53.601C506.117 62.001 512.217 66.201 518.617 66.201C528.117 66.301 533.417 61.701 533.417 54.601C533.417 37.801 496.317 45.001 496.317 19.301C496.317 7.10103 506.317 -0.0989706 520.017 0.00102811C529.517 0.101027 538.617 5.40103 542.717 16.901L533.217 20.301C530.617 12.601 525.417 9.30103 519.917 9.20103C512.017 9.20103 506.917 13.101 506.917 19.301C506.917 35.901 543.917 29.601 543.917 54.701C543.917 67.101 534.217 75.601 518.517 75.401C507.717 75.301 499.117 69.101 493.017 58.501L501.817 53.601Z" fill="#F0FAFF"/>
<path d="M430.391 53.601C434.691 62.001 440.791 66.201 447.191 66.201C456.691 66.301 461.991 61.701 461.991 54.601C461.991 37.801 424.891 45.001 424.891 19.301C424.891 7.10103 434.891 -0.0989706 448.591 0.00102811C458.091 0.101027 467.191 5.40103 471.291 16.901L461.791 20.301C459.191 12.601 453.991 9.30103 448.491 9.20103C440.591 9.20103 435.491 13.101 435.491 19.301C435.491 35.901 472.491 29.601 472.491 54.701C472.491 67.101 462.791 75.601 447.091 75.401C436.291 75.301 427.691 69.101 421.591 58.501L430.391 53.601Z" fill="#F0FAFF"/>
<path d="M379.507 0.801025L406.907 74.601H395.607L388.207 54.501H357.907L350.207 74.601H338.907L366.807 0.801025H379.507ZM361.307 45.301H384.707L373.207 14.201L361.307 45.301Z" fill="#F0FAFF"/>
<path d="M306.042 37.601C314.042 37.601 319.642 31.901 319.642 23.801C319.642 15.801 313.942 10.101 305.942 10.101H289.742V37.601H306.042ZM306.342 0.801025C320.342 0.801025 330.142 10.301 330.142 23.801C330.142 37.301 320.342 46.801 306.342 46.801H289.742V74.601H279.142V0.801025H306.342Z" fill="#F0FAFF"/>
<path d="M210.041 59.201L188.141 20.301V74.601H177.541V0.801025H189.041L214.741 45.901L240.341 0.801025H251.941V74.601H241.341V20.301L219.341 59.201H210.041Z" fill="#F0FAFF"/>
<path d="M36.4 75.401C15 75.401 0 59.801 0 37.701C0 15.501 15 0.000976562 36.4 0.000976562C46.5 0.000976562 55.5 4.30097 62.1 11.001L55.1 17.901C50.7 12.701 43.7 9.30098 36.3 9.30098C21 9.30098 10.7 20.701 10.7 37.701C10.7 54.701 21 66.101 36.3 66.101C44.2 66.101 50.5 62.501 54.7 57.701L62.1 64.401C55.5 71.101 47 75.501 36.4 75.401Z" fill="#F0FAFF"/>
<g clip-path="url(#clip0_3_1123)">
<path d="M119.7 67.2001C135.3 67.2001 145.8 55.8001 145.8 38.8001C145.8 21.8001 135.3 10.4001 119.7 10.4001C104.1 10.4001 93.7 21.8001 93.7 38.8001C93.7 55.8001 104.1 67.2001 119.7 67.2001ZM119.7 1.1001C141.3 1.1001 156.5 16.7001 156.5 38.8001C156.5 60.9001 141.3 76.5001 119.7 76.5001C98.2 76.5001 83 60.9001 83 38.8001C83 16.7001 98.2 1.1001 119.7 1.1001Z" fill="#F0FAFF"/>
<path d="M144.407 -6.99867C145.118 -7.62827 146.219 -6.98138 146.039 -6.04L137.312 39.5062C137.182 40.1824 136.434 40.5242 135.843 40.1771L110.157 25.0923C109.566 24.7453 109.483 23.915 109.994 23.4628L144.407 -6.99867Z" fill="#070707"/>
<circle cx="119.29" cy="37.3154" r="3.5" fill="#F0FAFF"/>
<path d="M93.5544 81.7016C93.374 82.643 94.4755 83.2899 95.1868 82.6603L129.6 52.1989C130.111 51.7466 130.027 50.9164 129.436 50.5693L103.751 35.4845C103.16 35.1374 102.411 35.4793 102.282 36.1554L93.5544 81.7016Z" fill="#070707"/>
</g>
<defs>
<clipPath id="clip0_3_1123">
<rect width="81.5" height="76" fill="white" transform="translate(79 0.800049)"/>
</clipPath>
</defs>
</svg>
