<svg width="267" height="84" viewBox="0 0 267 84" fill="none" xmlns="http://www.w3.org/2000/svg">
<path d="M31.2629 6.71L31.2529 7.35C31.2529 9.42 29.8429 10.63 27.7929 10.66C25.6429 10.66 24.1229 9.1 24.1229 6.89C24.1229 4.68 25.6429 3.13 27.7929 3.13C30.1029 3.13 30.9129 4.91 30.9129 4.91L30.0029 5.38C30.0029 5.38 29.4229 4.06 27.7929 4.06C26.2329 4.06 25.1829 5.2 25.1829 6.89C25.1829 8.59 26.2329 9.73 27.7929 9.73C29.1329 9.69 30.2029 9.04 30.2129 7.59H27.9129V6.71H31.2629ZM35.4311 10.65C33.6511 10.65 32.6111 9.41 32.6111 7.66V3.2H33.6711V7.66C33.6711 8.86 34.2611 9.67 35.4311 9.67C36.6011 9.67 37.1911 8.86 37.1911 7.66V3.2H38.2611V7.66C38.2611 9.41 37.2111 10.65 35.4311 10.65ZM39.7788 3.2H40.8388V10.58H39.7788V3.2ZM44.5646 9.65C46.1446 9.65 47.2046 8.54 47.2046 6.89C47.2046 5.24 46.1446 4.13 44.5646 4.13L43.5146 4.14V9.64L44.5646 9.65ZM44.5746 3.2C46.7346 3.2 48.2546 4.72 48.2546 6.89C48.2546 9.06 46.7346 10.58 44.5746 10.58H42.4546V3.2H44.5746ZM54.1261 3.2V4.13H50.4161V6.32H53.6061V7.24H50.4161V9.65H54.1261V10.58H49.3561V3.2H54.1261ZM62.8752 3.2V4.13H60.7952V10.58H59.7252V4.13H57.6352V3.2H62.8752ZM69.7931 3.2V10.58H68.7231V7.25H65.2431V10.58H64.1831V3.2H65.2431V6.33H68.7231V3.2H69.7931ZM74.1774 6.88C74.9874 6.88 75.5374 6.35 75.5374 5.5C75.5374 4.65 74.9874 4.13 74.1774 4.13H72.5674V6.88H74.1774ZM76.9474 10.58H75.6674L73.7974 7.81H72.5674V10.58H71.5074V3.2H74.3074C75.6574 3.2 76.5974 4.12 76.5974 5.48C76.6074 6.44 76.0874 7.26 74.9774 7.66L76.9474 10.58ZM81.3769 9.73C82.9369 9.73 83.9869 8.59 83.9869 6.89C83.9869 5.19 82.9369 4.05 81.3769 4.05C79.8169 4.05 78.7769 5.19 78.7769 6.89C78.7769 8.59 79.8169 9.73 81.3769 9.73ZM81.3769 3.12C83.5369 3.12 85.0569 4.68 85.0569 6.89C85.0569 9.1 83.5369 10.66 81.3769 10.66C79.2269 10.66 77.7069 9.1 77.7069 6.89C77.7069 4.68 79.2269 3.12 81.3769 3.12ZM89.1323 10.65C87.3523 10.65 86.3123 9.41 86.3123 7.66V3.2H87.3723V7.66C87.3723 8.86 87.9623 9.67 89.1323 9.67C90.3023 9.67 90.8923 8.86 90.8923 7.66V3.2H91.9623V7.66C91.9623 9.41 90.9123 10.65 89.1323 10.65ZM100.306 6.71L100.296 7.35C100.296 9.42 98.8859 10.63 96.8359 10.66C94.6859 10.66 93.1659 9.1 93.1659 6.89C93.1659 4.68 94.6859 3.13 96.8359 3.13C99.1459 3.13 99.9559 4.91 99.9559 4.91L99.0459 5.38C99.0459 5.38 98.4659 4.06 96.8359 4.06C95.2759 4.06 94.2259 5.2 94.2259 6.89C94.2259 8.59 95.2759 9.73 96.8359 9.73C98.1759 9.69 99.2459 9.04 99.2559 7.59H96.9559V6.71H100.306ZM107.244 3.2V10.58H106.174V7.25H102.694V10.58H101.634V3.2H102.694V6.33H106.174V3.2H107.244ZM116.196 3.2V4.13H114.116V10.58H113.046V4.13H110.956V3.2H116.196ZM123.113 3.2V10.58H122.043V7.25H118.563V10.58H117.503V3.2H118.563V6.33H122.043V3.2H123.113ZM129.478 3.2V4.13H125.768V6.32H128.958V7.24H125.768V9.65H129.478V10.58H124.708V3.2H129.478ZM134.017 8.48C134.447 9.32 135.057 9.74 135.697 9.74C136.647 9.75 137.177 9.29 137.177 8.58C137.177 6.9 133.467 7.62 133.467 5.05C133.467 3.83 134.467 3.11 135.837 3.12C136.787 3.13 137.697 3.66 138.107 4.81L137.157 5.15C136.897 4.38 136.377 4.05 135.827 4.04C135.037 4.04 134.527 4.43 134.527 5.05C134.527 6.71 138.227 6.08 138.227 8.59C138.227 9.83 137.257 10.68 135.687 10.66C134.607 10.65 133.747 10.03 133.137 8.97L134.017 8.48ZM144.439 3.2V4.13H140.729V6.32H143.919V7.24H140.729V9.65H144.439V10.58H139.669V3.2H144.439ZM149.518 3.2L152.258 10.58H151.128L150.388 8.57H147.358L146.588 10.58H145.458L148.248 3.2H149.518ZM147.698 7.65H150.038L148.888 4.54L147.698 7.65ZM159.6 9.73C161.16 9.73 162.21 8.59 162.21 6.89C162.21 5.19 161.16 4.05 159.6 4.05C158.04 4.05 157 5.19 157 6.89C157 8.59 158.04 9.73 159.6 9.73ZM159.6 3.12C161.76 3.12 163.28 4.68 163.28 6.89C163.28 9.1 161.76 10.66 159.6 10.66C157.45 10.66 155.93 9.1 155.93 6.89C155.93 4.68 157.45 3.12 159.6 3.12ZM169.165 3.2V4.13H165.555V6.42H168.615V7.34H165.555V10.58H164.495V3.2H169.165ZM172.679 3.2H173.739V10.58H172.679V3.2ZM181.195 3.2V10.58H180.045L176.385 5.02V10.58H175.325V3.2H176.475L180.125 8.75V3.2H181.195ZM187.525 3.2V4.13H183.915V6.42H186.975V7.34H183.915V10.58H182.855V3.2H187.525ZM191.934 9.73C193.494 9.73 194.544 8.59 194.544 6.89C194.544 5.19 193.494 4.05 191.934 4.05C190.374 4.05 189.334 5.19 189.334 6.89C189.334 8.59 190.374 9.73 191.934 9.73ZM191.934 3.12C194.094 3.12 195.614 4.68 195.614 6.89C195.614 9.1 194.094 10.66 191.934 10.66C189.784 10.66 188.264 9.1 188.264 6.89C188.264 4.68 189.784 3.12 191.934 3.12ZM199.519 6.88C200.329 6.88 200.879 6.35 200.879 5.5C200.879 4.65 200.329 4.13 199.519 4.13H197.909V6.88H199.519ZM202.289 10.58H201.009L199.139 7.81H197.909V10.58H196.849V3.2H199.649C200.999 3.2 201.939 4.12 201.939 5.48C201.949 6.44 201.429 7.26 200.319 7.66L202.289 10.58ZM206.964 9.04L204.774 5.15V10.58H203.714V3.2H204.864L207.434 7.71L209.994 3.2H211.154V10.58H210.094V5.15L207.894 9.04H206.964ZM216.452 3.2L219.192 10.58H218.062L217.322 8.57H214.292L213.522 10.58H212.392L215.182 3.2H216.452ZM214.632 7.65H216.972L215.822 4.54L214.632 7.65ZM224.662 3.2V4.13H222.582V10.58H221.512V4.13H219.422V3.2H224.662ZM226.009 3.2H227.069V10.58H226.009V3.2ZM232.09 9.73C233.65 9.73 234.7 8.59 234.7 6.89C234.7 5.19 233.65 4.05 232.09 4.05C230.53 4.05 229.49 5.19 229.49 6.89C229.49 8.59 230.53 9.73 232.09 9.73ZM232.09 3.12C234.25 3.12 235.77 4.68 235.77 6.89C235.77 9.1 234.25 10.66 232.09 10.66C229.94 10.66 228.42 9.1 228.42 6.89C228.42 4.68 229.94 3.12 232.09 3.12ZM242.845 3.2V10.58H241.695L238.035 5.02V10.58H236.975V3.2H238.125L241.775 8.75V3.2H242.845Z" fill="white"/>
<path d="M245.911 55.7858C248.014 59.8937 250.998 61.9477 254.127 61.9477C258.773 61.9966 261.365 59.747 261.365 56.2748C261.365 48.059 243.222 51.58 243.222 39.0117C243.222 33.0454 248.112 29.5244 254.812 29.5733C259.458 29.6222 263.908 32.2141 265.913 37.838L261.267 39.5008C259.996 35.7352 257.453 34.1213 254.763 34.0724C250.9 34.0724 248.406 35.9797 248.406 39.0117C248.406 47.1298 266.5 44.0488 266.5 56.3237C266.5 62.3878 261.757 66.5446 254.079 66.4468C248.797 66.3979 244.591 63.3659 241.608 58.1821L245.911 55.7858Z" fill="#F0FAFF"/>
<path d="M210.981 55.7858C213.084 59.8937 216.067 61.9477 219.197 61.9477C223.843 61.9966 226.435 59.747 226.435 56.2748C226.435 48.059 208.292 51.58 208.292 39.0117C208.292 33.0454 213.182 29.5244 219.882 29.5733C224.528 29.6222 228.978 32.2141 230.983 37.838L226.337 39.5008C225.066 35.7352 222.523 34.1213 219.833 34.0724C215.97 34.0724 213.475 35.9797 213.475 39.0117C213.475 47.1298 231.57 44.0488 231.57 56.3237C231.57 62.3878 226.826 66.5446 219.148 66.4468C213.867 66.3979 209.661 63.3659 206.678 58.1821L210.981 55.7858Z" fill="#F0FAFF"/>
<path d="M186.097 29.9644L199.497 66.0555H193.971L190.352 56.2258H175.534L171.768 66.0555H166.242L179.887 29.9644H186.097ZM177.197 51.7266H188.64L183.016 36.5175L177.197 51.7266Z" fill="#F0FAFF"/>
<path d="M150.169 47.961C154.082 47.961 156.82 45.1735 156.82 41.2123C156.82 37.2999 154.033 34.5124 150.121 34.5124H142.198V47.961H150.169ZM150.316 29.9644C157.163 29.9644 161.955 34.6102 161.955 41.2123C161.955 47.8143 157.163 52.4602 150.316 52.4602H142.198V66.0555H137.014V29.9644H150.316Z" fill="#F0FAFF"/>
<path d="M103.22 58.5243L92.5095 39.5006V66.0555H87.3257V29.9644H92.9497L105.518 52.02L118.038 29.9644H123.711V66.0555H118.527V39.5006L107.768 58.5243H103.22Z" fill="#F0FAFF"/>
<path d="M58.5867 61.9028C66.2597 61.9028 71.4242 56.2957 71.4242 47.9342C71.4242 39.5727 66.2597 33.9656 58.5868 33.9656C50.9138 33.9656 45.7985 39.5727 45.7985 47.9342C45.7985 56.2957 50.9138 61.9028 58.5867 61.9028ZM58.5868 29.3913C69.2109 29.3913 76.6871 37.0642 76.687 47.9342C76.687 58.8041 69.2108 66.477 58.5867 66.477C48.0118 66.4771 40.5356 58.8042 40.5356 47.9342C40.5356 37.0643 48.0119 29.3913 58.5868 29.3913Z" fill="#F0FAFF"/>
<path d="M69.6267 26.9321C70.3379 26.3026 71.4394 26.9494 71.259 27.8908L67.3824 48.1215C67.2528 48.7977 66.5044 49.1395 65.9134 48.7924L54.5043 42.0921C53.9133 41.745 53.8301 40.9147 54.341 40.4625L69.6267 26.9321Z" fill="#070707"/>
<ellipse cx="1.72149" cy="1.72149" rx="1.72149" ry="1.72149" transform="matrix(1 -1.05548e-06 -1.13291e-06 0.999997 56.6626 46.0234)" fill="#F0FAFF"/>
<path d="M46.007 68.1056C45.8266 69.047 46.9281 69.6939 47.6394 69.0643L62.9251 55.5339C63.436 55.0817 63.3527 54.2514 62.7617 53.9043L51.3527 47.204C50.7617 46.8569 50.0132 47.1987 49.8837 47.8749L46.007 68.1056Z" fill="#070707"/>
<path d="M18.3012 66.4468C7.83565 66.4468 0.5 58.8178 0.5 48.01C0.5 37.1534 7.83565 29.5732 18.3012 29.5732C23.2405 29.5732 27.6419 31.6761 30.8696 34.9527L27.4463 38.327C25.2945 35.784 21.8712 34.1213 18.2523 34.1213C10.7699 34.1213 5.73277 39.6964 5.73277 48.01C5.73277 56.3237 10.7699 61.8987 18.2523 61.8987C22.1157 61.8987 25.1967 60.1382 27.2507 57.7908L30.8696 61.0674C27.6419 64.3439 23.4851 66.4957 18.3012 66.4468Z" fill="#F0FAFF"/>
</svg>
